<svg xmlns="http://www.w3.org/2000/svg" width="128" height="128" viewBox="0 0 128 128"><rect width="124" height="124" x="2" y="2" fill="#4a2b17" stroke="#2d1a0d" stroke-width="4" rx="14"/><ellipse cx="64" cy="82" rx="42" ry="14" fill="#f0a500"/><path d="M64 24c-22 0-40 18-40 40v10h80V64c0-22-18-40-40-40z" fill="#fff7e8"/><ellipse cx="64" cy="74" rx="40" ry="8" fill="#e8d9b8"/><circle cx="47" cy="54" r="10" fill="#f0a500"/><circle cx="47" cy="54" r="4.5" fill="#ffd76e"/><circle cx="82" cy="54" r="10" fill="#3f8f3a"/><path d="M76 54h12" stroke="#d95d1e" stroke-width="4" stroke-linecap="round"/><path d="M82 48v12" stroke="#d95d1e" stroke-width="4" stroke-linecap="round"/><path d="M37 26q-1-8 6-11M52 22q-1-8 6-11M67 22q-1-8 6-11M82 26q-1-8 6-11" stroke="#fff7e8" stroke-width="4" stroke-linecap="round" fill="none" opacity="0.7"/></svg>
